# This file uses centimeters as units for non-parametric coordinates.

v -3.256410 -18.797939 3.256411
v 3.256411 -18.797939 3.256411
v -3.256410 3.256410 3.256411
v 3.256411 3.256410 3.256411
v -3.256411 3.256410 -3.256411
v 3.256411 3.256410 -3.256410
v -3.256411 -18.797939 -3.256411
v 3.256411 -18.797939 -3.256410
vt 0.984741 0.016963
vt 0.984741 0.016963
vt 0.763381 0.755610
vt 0.763381 0.987453
vt 0.763381 0.755610
vt 0.763381 0.773646
vt 0.984741 0.773646
vt 0.984741 0.987453
vt 0.984741 0.755610
vt 0.984741 0.755610
vt 0.984741 0.016963
vt 0.984741 0.016963
vt 0.763381 0.755610
vt 0.763381 0.016963
vt 0.763381 0.755610
vt 0.763381 0.016963
vt 0.763381 0.016963
vt 0.984741 0.755610
vt 0.763381 0.016963
vt 0.984741 0.755610
vn -0.707107 0.000000 0.707107
vn 0.707107 0.000000 0.707107
vn 0.692177 0.204405 0.692177
vn -0.692177 0.204405 0.692177
vn 0.692177 0.204405 -0.692177
vn -0.692177 0.204405 -0.692177
vn 0.707107 0.000000 -0.707107
vn -0.707107 0.000000 -0.707107
s 1
f 1/19/1 2/2/2 4/18/3 3/5/4
f 3/4/4 4/6/3 6/7/5 5/8/6
f 5/9/6 6/13/5 8/14/7 7/12/8
f 2/17/2 8/11/7 6/10/5 4/3/3
f 7/16/8 1/1/1 3/20/4 5/15/6
