# This file uses centimeters as units for non-parametric coordinates.

v -1.592163 -7.000000 2.360442
v -1.592163 2.360442 -2.360442
v -3.100285 -7.000000 -2.360442
v -2.335678 -7.000000 2.360442
v -3.100285 -7.000000 1.595835
v -3.100285 1.894924 -2.360442
v -2.815449 2.220863 -2.360442
v -2.462691 2.360442 -2.360442
v -3.100285 1.894924 1.595835
v -2.826421 2.220863 1.405808
v -1.592163 2.360442 1.870736
v -1.592163 1.894924 2.360439
v -2.426068 2.360442 1.870492
v -2.335678 1.894924 2.360439
v -3.100285 -4.950550 -2.360442
v -3.100285 -4.950550 1.595835
v -2.335678 -4.950550 2.360442
v -1.592163 -4.950550 2.360442
v -3.100285 -2.699286 -2.360442
v -3.100285 -2.699286 1.595835
v -2.335678 -2.699286 2.360441
v -1.592163 -2.699286 2.360441
v -3.100285 -0.991443 -2.360442
v -3.100285 -0.991443 1.595835
v -2.335678 -0.991443 2.360440
v -1.592163 -0.991443 2.360440
vt 0.088718 0.748923
vt 0.088637 0.699867
vt 1.017283 0.699867
vt 0.914290 0.699867
vt 0.914193 0.097988
vt 1.017283 0.097988
vt 0.699935 0.699867
vt 0.699935 0.748923
vt 0.115910 0.793063
vt 0.655670 0.792637
vt 0.722152 0.853525
vt 0.115806 0.847432
vt 0.798288 0.699867
vt 0.798288 0.748923
vt 0.956344 0.699867
vt 0.956344 0.748923
vt 1.017283 0.278225
vt 0.914290 0.278225
vt 0.722020 0.973036
vt 0.115632 0.972191
vt 0.038463 0.097988
vt 0.673450 0.097988
vt 0.673474 0.699867
vt 0.038463 0.699867
vt 0.038463 0.020532
vt 0.673497 0.417356
vt 0.914187 0.020532
vt 1.017283 0.417356
vt 0.038466 0.023156
vt 0.673520 0.402701
vt 0.914322 0.402701
vt 1.017330 0.402698
vt 0.914291 0.023152
vt 1.017268 0.023156
vt 0.673477 0.023152
vt 0.038492 0.402698
vt 0.914389 0.417356
vt 1.017283 0.020532
vt 0.673437 0.020532
vt 0.038463 0.417356
vt 0.038463 0.278225
vt 0.673474 0.278225
vn -0.000022 0.151933 0.988391
vn -0.433388 0.104277 0.895154
vn -0.452195 0.000000 0.891919
vn 0.000000 0.000001 1.000000
vn -1.000000 0.000000 0.000000
vn -0.987137 0.000000 0.159879
vn -0.984679 0.068141 0.160514
vn -0.996404 0.084734 -0.000141
vn -0.575291 0.817949 0.000002
vn -0.570809 0.819349 0.053326
vn -0.119661 0.985070 0.123769
vn -0.348169 0.937431 0.001117
vn -0.000014 0.995795 0.091611
vn 0.000000 1.000000 -0.000000
vn 0.000000 1.000000 -0.000000
vn -1.000000 0.000000 0.000000
vn -0.987137 0.000000 0.159879
vn -0.987137 0.000000 0.159879
vn -1.000000 0.000000 0.000000
vn -0.452196 0.000000 0.891918
vn -0.452196 0.000000 0.891919
vn 0.000000 0.000000 1.000000
vn 0.000000 0.000000 1.000000
vn -0.987137 0.000000 0.159879
vn -1.000000 0.000000 0.000000
vn -0.452196 0.000000 0.891919
vn 0.000000 0.000000 1.000000
s 1
f 12/3/1 14/4/2 25/18/3 26/17/4
f 23/41/5 24/42/6 9/23/7 6/24/8
f 24/42/6 25/18/3 14/4/2 9/23/7
f 7/9/9 10/10/10 13/11/11 8/12/12
f 7/1/9 6/2/8 9/7/7 10/8/10
f 10/8/10 9/7/7 14/13/2 13/14/11
f 12/15/1 11/16/13 13/14/11 14/13/2
f 8/12/14 13/11/11 11/19/13 2/20/15
f 3/21/16 5/22/17 16/26/18 15/40/19
f 5/22/17 4/5/20 17/37/21 16/26/18
f 18/28/22 17/37/21 4/5/20 1/6/23
f 15/25/19 16/39/18 20/30/24 19/36/25
f 16/39/18 17/27/21 21/31/26 20/30/24
f 22/32/27 21/31/26 17/27/21 18/38/22
f 19/29/25 20/35/24 24/42/6 23/41/5
f 20/35/24 21/33/26 25/18/3 24/42/6
f 26/17/4 25/18/3 21/33/26 22/34/27
