# This file uses centimeters as units for non-parametric coordinates.

v -1.592163 2.360443 -2.360442
v 1.592163 2.360443 -2.360442
v -1.592163 1.895155 2.360446
v -1.592163 2.360443 1.870826
v 1.592163 2.360443 1.870826
v 1.592163 1.895155 2.360446
v 1.592163 -2.699286 2.360444
v -1.592163 -2.699286 2.360444
v 1.592163 -4.950550 2.360443
v -1.592163 -4.950550 2.360443
v 1.592163 -6.989148 2.360442
v -1.592163 -6.989148 2.360442
v 1.592163 -0.991443 2.360445
v -1.592163 -0.991443 2.360445
vt 1.000000 0.699196
vt 0.000000 0.699196
vt 0.000000 0.748922
vt 1.000000 0.748923
vt 1.000000 0.994151
vt 0.000000 0.994151
vt 0.000005 0.021527
vt 0.999995 0.401931
vt 0.999995 0.021527
vt 0.000005 0.401931
vt 1.000000 0.418157
vt 0.000000 0.018384
vt 1.000000 0.018384
vt 0.000000 0.418157
vt 1.000000 0.099772
vt 0.000000 0.099772
vt 1.000000 0.286665
vt 0.000000 0.277629
vt 1.000000 0.277629
vt 0.000000 0.286665
vn 0.000000 0.995178 0.098084
vn 0.000000 0.995178 0.098084
vn 0.000000 1.000000 0.000000
vn 0.000000 1.000000 0.000000
vn 0.000000 0.144539 0.989499
vn 0.000000 0.144539 0.989499
vn 0.000000 -0.000000 1.000000
vn 0.000000 -0.000000 1.000000
vn 0.000000 -0.000000 1.000000
vn 0.000000 -0.000000 1.000000
vn 0.000000 -0.000000 1.000000
vn 0.000000 -0.000000 1.000000
vn 0.000000 -0.000000 1.000000
vn 0.000000 -0.000000 1.000000
s 1
f 4/3/1 5/4/2 2/5/3 1/6/4
f 4/3/1 3/2/5 6/1/6 5/4/2
f 8/7/7 7/9/8 13/17/9 14/20/10
f 8/10/7 10/12/11 9/13/12 7/8/8
f 12/16/13 11/15/14 9/11/12 10/14/11
f 14/18/10 13/19/9 6/1/6 3/2/5
