# This file uses centimeters as units for non-parametric coordinates.

v 0.000000 -0.360364 -1.066495
v 0.000000 -0.507735 -0.973225
v 0.115703 -0.434050 -1.019860
v 0.000000 -0.278660 -0.867341
v 0.000000 -0.426032 -0.774070
v 0.115703 -0.352346 -0.820706
v 0.000000 -0.352346 -0.820706
v 0.000000 -0.537052 -1.270036
v 0.115703 -0.439137 -1.253964
v 0.000000 -0.341221 -1.237892
v 0.000000 -0.358593 -1.550650
v 0.164352 -0.281682 -1.442654
v 0.000000 -0.204771 -1.334658
v 0.000000 0.040260 -1.629987
v 0.164352 0.035197 -1.465714
v 0.000000 0.030132 -1.301440
v 0.000000 0.400062 -1.464361
v 0.203792 0.300984 -1.334925
v 0.000000 0.200450 -1.203208
v 0.000000 0.508996 -1.353729
v 0.205804 0.460586 -1.197227
v 0.000000 0.407741 -1.041010
v 0.000000 0.707896 -1.311418
v 0.203804 0.762761 -1.155585
v 0.000000 0.813193 -1.000037
v 0.000000 0.830034 -1.491767
v 0.203804 0.967106 -1.397679
v 0.000000 1.099743 -1.303877
v 0.000000 1.046584 -1.515092
v 0.000000 0.615111 -1.309592
v 0.203928 0.626291 -1.129543
v 0.000000 0.633037 -0.949779
v 0.284225 -0.740035 -0.270598
v 0.000000 -0.740035 -0.382683
v 0.000000 -0.751010 0.360680
v 0.284225 -0.740035 0.270598
v 0.396311 -0.740035 0.000000
v 0.534851 -0.574754 -0.500000
v 0.000000 -0.574754 -0.707107
v 0.000000 -0.606861 0.647172
v 0.534851 -0.574754 0.500000
v 0.741958 -0.574754 0.000000
v 0.716653 -0.298612 -0.637186
v 0.000000 -0.343955 -0.947829
v 0.000000 -0.420932 0.898470
v 0.688133 -0.343955 0.653281
v 0.961899 -0.302626 0.000081
v 0.721728 0.000000 -0.707107
v 0.000000 0.000000 -1.026298
v 0.000000 -0.006547 1.132517
v 0.721728 0.000000 0.707107
v 1.000852 0.000000 0.000000
v 0.653281 0.382683 -0.653281
v 0.000000 0.382683 -0.923879
v 0.000000 0.389031 0.880974
v 0.653281 0.382683 0.653281
v 0.923880 0.382683 0.000000
v 0.500000 0.707107 -0.500000
v 0.000000 0.707107 -0.707107
v 0.000000 0.707107 0.707107
v 0.500000 0.707107 0.500000
v 0.899636 1.107556 0.003543
v 0.270598 0.923880 -0.270598
v 0.000000 0.923880 -0.382683
v 0.000000 0.923880 0.382683
v 0.270598 0.923880 0.270598
v 0.382683 0.923880 0.000000
v 0.000000 -0.816155 0.000000
v 0.000000 1.000000 0.000000
v 0.641601 0.703560 0.045038
v 0.594724 0.699694 -0.301503
v 0.856881 0.808237 0.008916
v 1.032046 0.794213 -0.037851
v 0.805811 0.785357 -0.226194
v 0.655619 0.965812 -0.033810
v 1.015734 0.509761 -0.024408
v 1.050765 -0.721480 0.402496
v 1.202736 -0.742637 0.415089
v 0.803611 -0.203165 0.193535
v 0.888479 -0.071575 0.147142
v 0.898279 -0.242391 -0.015733
v 0.939273 -0.092622 0.034859
v 1.145433 -0.760705 0.193227
v 1.253530 -0.763684 0.302806
v 1.211589 -0.504440 0.412632
v 1.001721 -0.522495 0.414182
v 1.148327 -0.583241 0.090102
v 1.290250 -0.537033 0.238747
v 1.142156 -0.266371 0.143086
v 1.071241 -0.373578 0.057057
v 0.954648 -0.325267 0.314792
v 1.079598 -0.240450 0.281374
v -0.115703 -0.434050 -1.019860
v -0.115703 -0.352346 -0.820706
v -0.115703 -0.439137 -1.253964
v -0.164352 -0.281682 -1.442654
v -0.164352 0.035197 -1.465714
v -0.203792 0.300984 -1.334925
v -0.205804 0.460586 -1.197227
v -0.203804 0.762761 -1.155585
v -0.203804 0.967106 -1.397679
v -0.203928 0.626291 -1.129543
v -0.284225 -0.740035 -0.270598
v -0.284225 -0.740035 0.270598
v -0.396311 -0.740035 0.000000
v -0.534851 -0.574754 -0.500000
v -0.534851 -0.574754 0.500000
v -0.741958 -0.574754 0.000000
v -0.716653 -0.298612 -0.637186
v -0.688133 -0.343955 0.653281
v -0.961899 -0.302626 0.000081
v -0.721728 0.000000 -0.707107
v -0.721728 0.000000 0.707107
v -1.000852 0.000000 0.000000
v -0.653281 0.382683 -0.653281
v -0.653281 0.382683 0.653281
v -0.923880 0.382683 0.000000
v -0.500000 0.707107 -0.500000
v -0.500000 0.707107 0.500000
v -0.899636 1.107556 0.003543
v -0.270598 0.923880 -0.270598
v -0.270598 0.923880 0.270598
v -0.382683 0.923880 0.000000
v -0.641601 0.703560 0.045038
v -0.594724 0.699694 -0.301503
v -0.856881 0.808237 0.008916
v -1.032046 0.794213 -0.037851
v -0.805811 0.785357 -0.226194
v -0.655619 0.965812 -0.033810
v -1.015734 0.509761 -0.024408
v -1.050765 -0.721480 0.402496
v -1.202736 -0.742637 0.415089
v -0.803611 -0.203165 0.193535
v -0.888479 -0.071575 0.147142
v -0.898279 -0.242391 -0.015733
v -0.939273 -0.092622 0.034859
v -1.145433 -0.760705 0.193227
v -1.253530 -0.763684 0.302806
v -1.211589 -0.504440 0.412632
v -1.001721 -0.522495 0.414182
v -1.148327 -0.583241 0.090102
v -1.290250 -0.537033 0.238747
v -1.142156 -0.266371 0.143086
v -1.071241 -0.373578 0.057057
v -0.954648 -0.325267 0.314792
v -1.079598 -0.240450 0.281374
v 0.000000 0.086237 0.985377
v 0.000000 -0.223952 1.059546
vt 0.724919 0.052863
vt 0.735516 0.097497
vt 0.671827 0.105153
vt 0.650467 0.072944
vt 0.738531 0.142165
vt 0.671721 0.146248
vt 0.648204 0.114026
vt 0.821217 0.064809
vt 0.808123 0.109637
vt 0.786428 0.152633
vt 0.914230 0.122109
vt 0.865198 0.163381
vt 0.811876 0.196122
vt 0.959293 0.246806
vt 0.887640 0.259735
vt 0.814340 0.266225
vt 0.947497 0.369877
vt 0.870218 0.350159
vt 0.794256 0.323321
vt 0.930531 0.415060
vt 0.848931 0.409882
vt 0.768007 0.401332
vt 0.931962 0.477705
vt 0.850774 0.503328
vt 0.778701 0.536040
vt 0.974260 0.541206
vt 0.909186 0.570572
vt 0.868660 0.633506
vt 0.951379 0.620840
vt 0.926717 0.449836
vt 0.840923 0.463264
vt 0.757968 0.478938
vt 0.467693 0.107578
vt 0.528476 0.052007
vt 0.635816 0.123385
vt 0.508723 0.194648
vt 0.255013 0.047721
vt 0.306581 0.107810
vt 0.264850 0.192961
vt 0.160895 0.118975
vt 0.386875 0.125553
vt 0.385276 0.212472
vt 0.706033 0.214268
vt 0.523582 0.274264
vt 0.239135 0.262759
vt 0.092663 0.198388
vt 0.383848 0.282735
vt 0.734394 0.331161
vt 0.541318 0.339822
vt 0.022642 0.327311
vt 0.226450 0.339118
vt 0.383785 0.343650
vt 0.711952 0.464655
vt 0.539138 0.427167
vt 0.232899 0.427536
vt 0.060622 0.472190
vt 0.385295 0.423638
vt 0.641865 0.582268
vt 0.519418 0.518796
vt 0.256445 0.518083
vt 0.133941 0.583249
vt 0.197905 0.881624
vt 0.208347 0.968406
vt 0.055232 0.910594
vt 0.579952 0.832414
vt 0.481021 0.841911
vt 0.541325 0.719731
vt 0.528583 0.663571
vt 0.468867 0.610759
vt 0.306016 0.609135
vt 0.246771 0.665194
vt 0.115082 0.788378
vt 0.446005 0.745944
vt 0.387305 0.019817
vt 0.387611 0.694904
vt 0.386034 0.589489
vt 0.368696 0.510387
vt 0.465900 0.509524
vt 0.344102 0.954868
vt 0.582041 0.931572
vt 0.405624 0.872789
vt 0.351540 0.733938
vt 0.245683 0.775522
vt 0.132684 0.656038
vt 0.403727 0.907492
vt 0.560361 0.981781
vt 0.666688 0.840227
vt 0.644714 0.770257
vt 0.736092 0.769010
vt 0.748000 0.838717
vt 0.754857 0.627356
vt 0.739302 0.705224
vt 0.644480 0.713874
vt 0.661703 0.647990
vt 0.584415 0.691461
vt 0.585991 0.792396
vt 0.658085 0.940570
vt 0.740068 0.979224
vt 0.840245 0.841475
vt 0.851643 0.778313
vt 0.969767 0.788053
vt 0.938767 0.853638
vt 0.838384 0.963947
vt 0.937515 0.952222
vt 0.960189 0.663210
vt 0.974919 0.732738
vt 0.856888 0.718080
vt 0.856742 0.653679
vt 0.724919 0.052863
vt 0.735516 0.097497
vt 0.671827 0.105153
vt 0.650467 0.072944
vt 0.738531 0.142165
vt 0.671721 0.146248
vt 0.648204 0.114026
vt 0.821217 0.064809
vt 0.808123 0.109637
vt 0.786428 0.152633
vt 0.914230 0.122109
vt 0.865198 0.163381
vt 0.811876 0.196122
vt 0.959293 0.246806
vt 0.887640 0.259735
vt 0.814340 0.266225
vt 0.947497 0.369877
vt 0.870218 0.350159
vt 0.794256 0.323321
vt 0.930531 0.415060
vt 0.848931 0.409882
vt 0.768007 0.401332
vt 0.926717 0.449836
vt 0.840923 0.463264
vt 0.757968 0.478938
vt 0.850774 0.503328
vt 0.931962 0.477705
vt 0.974260 0.541206
vt 0.909186 0.570572
vt 0.778701 0.536040
vt 0.868660 0.633506
vt 0.951379 0.620840
vt 0.467693 0.107578
vt 0.528476 0.052007
vt 0.635816 0.123385
vt 0.508723 0.194648
vt 0.255013 0.047721
vt 0.306581 0.107810
vt 0.264850 0.192961
vt 0.160895 0.118975
vt 0.386875 0.125553
vt 0.385276 0.212472
vt 0.706033 0.214268
vt 0.523582 0.274264
vt 0.239135 0.262759
vt 0.092663 0.198388
vt 0.383848 0.282735
vt 0.734394 0.331161
vt 0.541318 0.339822
vt 0.022642 0.327311
vt 0.226450 0.339118
vt 0.383785 0.343650
vt 0.711952 0.464655
vt 0.539138 0.427167
vt 0.232899 0.427536
vt 0.060622 0.472190
vt 0.385295 0.423638
vt 0.641865 0.582268
vt 0.519418 0.518796
vt 0.256445 0.518083
vt 0.133941 0.583249
vt 0.197905 0.881624
vt 0.208347 0.968406
vt 0.055232 0.910594
vt 0.579952 0.832414
vt 0.481021 0.841911
vt 0.541325 0.719731
vt 0.528583 0.663571
vt 0.468867 0.610759
vt 0.306016 0.609135
vt 0.246771 0.665194
vt 0.115082 0.788378
vt 0.446005 0.745944
vt 0.387305 0.019817
vt 0.387611 0.694904
vt 0.386034 0.589489
vt 0.368696 0.510387
vt 0.465900 0.509524
vt 0.344102 0.954868
vt 0.582041 0.931572
vt 0.405624 0.872789
vt 0.351540 0.733938
vt 0.245683 0.775522
vt 0.132684 0.656038
vt 0.403727 0.907492
vt 0.560361 0.981781
vt 0.666688 0.840227
vt 0.644714 0.770257
vt 0.736092 0.769010
vt 0.748000 0.838717
vt 0.754857 0.627356
vt 0.739302 0.705224
vt 0.644480 0.713874
vt 0.661703 0.647990
vt 0.584415 0.691461
vt 0.585991 0.792396
vt 0.658085 0.940570
vt 0.740068 0.979224
vt 0.840245 0.841475
vt 0.851643 0.778313
vt 0.969767 0.788053
vt 0.938767 0.853638
vt 0.838384 0.963947
vt 0.937515 0.952222
vt 0.960189 0.663210
vt 0.974919 0.732738
vt 0.856888 0.718080
vt 0.856742 0.653679
vt 0.031297 0.361688
vt 0.031297 0.361688
vt 0.048601 0.263862
vt 0.048601 0.263862
vn 0.000000 -0.974287 0.225311
vn 0.999439 0.002434 0.033393
vn 0.511950 0.459390 0.725857
vn 0.000000 -0.178123 0.984008
vn -0.000000 0.984369 -0.176119
vn -0.000000 0.921061 0.389419
vn 0.000000 0.534786 0.844987
vn 0.000000 -0.970178 -0.242396
vn 0.990832 -0.066581 0.117556
vn 0.000000 0.895589 0.444883
vn 0.000000 -0.554646 -0.832086
vn 0.989434 -0.114949 0.088362
vn 0.000000 0.333512 0.942746
vn 0.000000 0.126150 -0.992011
vn 0.995933 -0.089164 -0.012927
vn -0.000000 -0.279916 0.960024
vn 0.000000 0.541294 -0.840833
vn 0.999537 -0.028034 -0.011874
vn -0.000000 -0.581406 0.813614
vn 0.000000 0.539830 -0.841774
vn 0.999768 0.019660 0.008768
vn -0.000000 -0.510998 0.859582
vn -0.000000 0.139809 -0.990179
vn 0.999223 0.039047 -0.005384
vn -0.000000 -0.075089 0.997177
vn 0.999698 0.020686 0.013279
vn 0.000000 -0.501908 -0.864921
vn -0.000000 -0.469977 -0.882679
vn 0.857153 0.294247 -0.422738
vn -0.000000 0.517853 0.855470
vn 0.000000 0.976734 0.214453
vn 0.000000 0.573406 -0.819272
vn 0.219884 -0.948570 -0.227740
vn 0.000000 -0.945361 -0.326026
vn 0.000000 -0.796789 -0.604257
vn 0.433590 -0.793858 -0.426368
vn -0.000000 -0.948690 0.316207
vn 0.224351 -0.948790 0.222404
vn 0.417619 -0.814513 0.402693
vn -0.000000 -0.828217 0.560408
vn 0.311797 -0.950149 -0.000000
vn 0.608588 -0.793479 -0.003485
vn -0.000000 -0.468422 -0.883505
vn 0.653884 -0.432281 -0.620942
vn 0.641332 -0.502224 0.580056
vn -0.000000 -0.590831 0.806795
vn 0.912659 -0.408719 -0.001395
vn -0.000000 0.004525 -0.999990
vn 0.720233 0.026610 -0.693222
vn 0.000000 0.369383 0.929277
vn 0.000000 -0.357321 0.933982
vn 0.661752 0.094336 0.743764
vn 0.999124 0.041783 0.002231
vn 0.000000 0.403751 -0.914869
vn 0.652779 0.395107 -0.646351
vn 0.640300 0.410482 0.649246
vn 0.000000 0.391959 0.919983
vn 0.000000 0.596871 0.802338
vn 0.961307 0.274651 0.021361
vn 0.000000 0.709230 -0.704977
vn 0.498839 0.707217 -0.501003
vn 0.505857 0.708241 0.492447
vn -0.000000 0.691690 0.722194
vn 0.118264 0.070996 0.990441
vn 0.958038 0.156103 0.240408
vn 0.372821 0.837916 0.398625
vn 0.301558 0.297427 -0.905870
vn 0.000000 0.924735 -0.380611
vn 0.268630 0.924832 -0.269303
vn 0.282460 0.922083 0.264534
vn 0.000000 0.924735 0.380611
vn -0.273936 0.920614 0.278259
vn -0.000000 -0.999990 -0.004484
vn 0.000000 1.000000 -0.000000
vn 0.300653 0.952300 0.052267
vn 0.478540 0.492924 0.726654
vn 0.510233 0.540184 -0.669226
vn 0.944102 -0.250282 0.214546
vn -0.606837 -0.676459 0.417316
vn 0.367581 -0.520429 0.770738
vn 0.514573 0.286472 0.808176
vn -0.835673 -0.073231 0.544324
vn -0.172581 -0.347985 -0.921479
vn 0.973665 0.096246 -0.206673
vn 0.737503 -0.673707 -0.046995
vn -0.194491 -0.847315 -0.494198
vn -0.783646 -0.114754 0.610516
vn 0.352785 0.680393 0.642346
vn 0.244202 0.775699 0.581942
vn -0.695591 -0.279259 0.661943
vn -0.095104 -0.400053 -0.911544
vn -0.021091 -0.558738 -0.829076
vn 0.694374 0.589169 -0.413188
vn 0.798154 0.495854 -0.342168
vn -0.511950 0.459389 0.725857
vn -0.999439 0.002434 0.033393
vn -0.990832 -0.066581 0.117557
vn -0.989434 -0.114949 0.088362
vn -0.995933 -0.089164 -0.012927
vn -0.999536 -0.028033 -0.011874
vn -0.999768 0.019660 0.008767
vn -0.999223 0.039047 -0.005384
vn -0.999698 0.020686 0.013279
vn -0.857153 0.294247 -0.422738
vn -0.219884 -0.948570 -0.227740
vn -0.433590 -0.793858 -0.426368
vn -0.417619 -0.814513 0.402693
vn -0.224351 -0.948790 0.222404
vn -0.608588 -0.793479 -0.003485
vn -0.311797 -0.950149 -0.000000
vn -0.653884 -0.432281 -0.620942
vn -0.641332 -0.502224 0.580056
vn -0.912659 -0.408719 -0.001395
vn -0.720233 0.026610 -0.693222
vn -0.661752 0.094336 0.743764
vn -0.999124 0.041783 0.002231
vn -0.652780 0.395106 -0.646351
vn -0.640300 0.410482 0.649246
vn -0.961307 0.274651 0.021361
vn -0.498839 0.707217 -0.501003
vn -0.505857 0.708241 0.492447
vn -0.118264 0.070996 0.990441
vn -0.372821 0.837916 0.398625
vn -0.958038 0.156103 0.240408
vn -0.301558 0.297427 -0.905870
vn -0.268630 0.924832 -0.269304
vn -0.282460 0.922083 0.264534
vn 0.273936 0.920614 0.278259
vn -0.300653 0.952300 0.052267
vn -0.478540 0.492924 0.726654
vn -0.510233 0.540184 -0.669226
vn -0.944102 -0.250282 0.214546
vn 0.606837 -0.676459 0.417316
vn 0.835673 -0.073231 0.544324
vn -0.514573 0.286472 0.808176
vn -0.367581 -0.520430 0.770738
vn 0.172580 -0.347985 -0.921479
vn 0.194490 -0.847315 -0.494198
vn -0.737503 -0.673707 -0.046995
vn -0.973665 0.096246 -0.206673
vn 0.783646 -0.114754 0.610516
vn 0.695591 -0.279259 0.661943
vn -0.244202 0.775699 0.581942
vn -0.352785 0.680394 0.642345
vn 0.095104 -0.400053 -0.911544
vn 0.021091 -0.558738 -0.829076
vn -0.798154 0.495854 -0.342168
vn -0.694374 0.589170 -0.413188
s 1
f 2/1/1 3/2/2 6/3/3 5/4/4
f 3/2/2 1/5/5 4/6/6 6/3/3
f 5/4/4 6/3/3 7/7/7
f 6/3/3 4/6/6 7/7/7
f 3/2/2 2/1/1 8/8/8 9/9/9
f 1/5/5 3/2/2 9/9/9 10/10/10
f 9/9/9 8/8/8 11/11/11 12/12/12
f 10/10/10 9/9/9 12/12/12 13/13/13
f 12/12/12 11/11/11 14/14/14 15/15/15
f 13/13/13 12/12/12 15/15/15 16/16/16
f 15/15/15 14/14/14 17/17/17 18/18/18
f 16/16/16 15/15/15 18/18/18 19/19/19
f 18/18/18 17/17/17 20/20/20 21/21/21
f 19/19/19 18/18/18 21/21/21 22/22/22
f 21/21/21 20/20/20 30/30/23 31/31/24
f 22/22/22 21/21/21 31/31/24 32/32/25
f 24/24/26 23/23/27 26/26/28 27/27/29
f 25/25/30 24/24/26 27/27/29 28/28/31
f 27/27/29 29/29/32 28/28/31
f 27/27/29 26/26/28 29/29/32
f 31/31/24 30/30/23 23/23/27 24/24/26
f 32/32/25 31/31/24 24/24/26 25/25/30
s 2
f 33/33/33 34/34/34 39/35/35 38/36/36
f 35/37/37 36/38/38 41/39/39 40/40/40
f 36/38/38 37/41/41 42/42/42 41/39/39
f 37/41/41 33/33/33 38/36/36 42/42/42
f 38/36/36 39/35/35 44/43/43 43/44/44
f 40/40/40 41/39/39 46/45/45 45/46/46
f 41/39/39 42/42/42 47/47/47 46/45/45
f 42/42/42 38/36/36 43/44/44 47/47/47
f 43/44/44 44/43/43 49/48/48 48/49/49
f 50/50/50 148/220/51 51/51/52
f 46/45/45 47/47/47 52/52/53 51/51/52
f 47/47/47 43/44/44 48/49/49 52/52/53
f 48/49/49 49/48/48 54/53/54 53/54/55
f 51/51/52 56/55/56 55/56/57 147/218/58
f 51/51/52 52/52/53 57/57/59 56/55/56
f 52/52/53 48/49/49 53/54/55 57/57/59
f 53/54/55 54/53/54 59/58/60 58/59/61
f 55/56/57 56/55/56 61/60/62 60/61/63
f 72/62/64 73/63/65 62/64/66
f 73/65/65 74/66/67 62/67/66
f 58/59/61 59/58/60 64/68/68 63/69/69
f 60/61/63 61/60/62 66/70/70 65/71/71
f 75/72/72 72/62/64 62/64/66
f 62/67/66 74/66/67 75/73/72
f 34/34/34 33/33/33 68/74/73
f 36/38/38 35/37/37 68/74/73
f 37/41/41 36/38/38 68/74/73
f 33/33/33 37/41/41 68/74/73
f 63/69/69 64/68/68 69/75/74
f 65/71/71 66/70/70 69/75/74
f 66/70/70 67/76/75 69/75/74
f 67/76/75 63/69/69 69/75/74
f 61/60/62 70/77/76 67/76/75 66/70/70
f 56/55/56 57/57/59 70/77/76 61/60/62
f 57/57/59 53/54/55 58/59/61 71/78/77
f 67/76/75 71/78/77 58/59/61 63/69/69
f 72/62/64 76/79/78 73/63/65
f 76/80/78 74/66/67 73/65/65
f 75/73/72 74/66/67 71/81/77 67/82/75
f 70/83/76 72/62/64 75/72/72 67/84/75
f 70/83/76 57/85/59 76/79/78 72/62/64
f 57/86/59 71/81/77 74/66/67 76/80/78
s 6
f 77/87/79 78/88/80 85/89/81 86/90/82
f 87/91/83 88/92/84 84/93/85 83/94/86
f 83/95/86 84/93/85 78/88/80 77/96/79
f 78/88/80 84/93/85 88/92/84 85/89/81
f 83/97/86 77/87/79 86/90/82 87/98/83
f 91/99/87 92/100/88 80/101/89 79/102/90
f 90/103/91 91/99/87 79/102/90 81/104/92
f 81/105/92 82/106/93 89/107/94 90/108/91
f 92/100/88 89/107/94 82/106/93 80/101/89
f 90/108/91 89/107/94 88/92/84 87/91/83
f 87/98/83 86/90/82 91/99/87 90/103/91
f 86/90/82 85/89/81 92/100/88 91/99/87
f 85/89/81 88/92/84 89/107/94 92/100/88
s 1
f 2/109/1 5/112/4 94/111/95 93/110/96
f 93/110/96 94/111/95 4/114/6 1/113/5
f 5/112/4 7/115/7 94/111/95
f 94/111/95 7/115/7 4/114/6
f 93/110/96 95/117/97 8/116/8 2/109/1
f 1/113/5 10/118/10 95/117/97 93/110/96
f 95/117/97 96/120/98 11/119/11 8/116/8
f 10/118/10 13/121/13 96/120/98 95/117/97
f 96/120/98 97/123/99 14/122/14 11/119/11
f 13/121/13 16/124/16 97/123/99 96/120/98
f 97/123/99 98/126/100 17/125/17 14/122/14
f 16/124/16 19/127/19 98/126/100 97/123/99
f 98/126/100 99/129/101 20/128/20 17/125/17
f 19/127/19 22/130/22 99/129/101 98/126/100
f 99/129/101 102/132/102 30/131/23 20/128/20
f 22/130/22 32/133/25 102/132/102 99/129/101
f 100/134/103 101/137/104 26/136/28 23/135/27
f 25/138/30 28/139/31 101/137/104 100/134/103
f 101/137/104 28/139/31 29/140/32
f 101/137/104 29/140/32 26/136/28
f 102/132/102 100/134/103 23/135/27 30/131/23
f 32/133/25 25/138/30 100/134/103 102/132/102
s 2
f 103/141/105 106/144/106 39/143/35 34/142/34
f 35/145/37 40/148/40 107/147/107 104/146/108
f 104/146/108 107/147/107 108/150/109 105/149/110
f 105/149/110 108/150/109 106/144/106 103/141/105
f 106/144/106 109/152/111 44/151/43 39/143/35
f 40/148/40 45/154/46 110/153/112 107/147/107
f 107/147/107 110/153/112 111/155/113 108/150/109
f 108/150/109 111/155/113 109/152/111 106/144/106
f 109/152/111 112/157/114 49/156/48 44/151/43
f 50/158/50 113/159/115 148/219/51
f 110/153/112 113/159/115 114/160/116 111/155/113
f 111/155/113 114/160/116 112/157/114 109/152/111
f 112/157/114 115/162/117 54/161/54 49/156/48
f 113/159/115 147/217/58 55/164/57 116/163/118
f 113/159/115 116/163/118 117/165/119 114/160/116
f 114/160/116 117/165/119 115/162/117 112/157/114
f 115/162/117 118/167/120 59/166/60 54/161/54
f 55/164/57 60/169/63 119/168/121 116/163/118
f 126/170/122 120/172/123 127/171/124
f 127/173/124 120/175/123 128/174/125
f 118/167/120 121/177/126 64/176/68 59/166/60
f 60/169/63 65/179/71 122/178/127 119/168/121
f 129/180/128 120/172/123 126/170/122
f 120/175/123 129/181/128 128/174/125
f 34/142/34 68/182/73 103/141/105
f 104/146/108 68/182/73 35/145/37
f 105/149/110 68/182/73 104/146/108
f 103/141/105 68/182/73 105/149/110
f 121/177/126 69/183/74 64/176/68
f 65/179/71 69/183/74 122/178/127
f 122/178/127 69/183/74 123/184/129
f 123/184/129 69/183/74 121/177/126
f 119/168/121 122/178/127 123/184/129 124/185/130
f 116/163/118 119/168/121 124/185/130 117/165/119
f 117/165/119 125/186/131 118/167/120 115/162/117
f 123/184/129 121/177/126 118/167/120 125/186/131
f 126/170/122 127/171/124 130/187/132
f 130/188/132 127/173/124 128/174/125
f 129/181/128 123/190/129 125/189/131 128/174/125
f 124/191/130 123/192/129 129/180/128 126/170/122
f 124/191/130 126/170/122 130/187/132 117/193/119
f 117/194/119 130/188/132 128/174/125 125/189/131
s 9
f 131/195/133 140/198/134 139/197/135 132/196/136
f 141/199/137 137/202/138 138/201/139 142/200/140
f 137/203/138 131/204/133 132/196/136 138/201/139
f 132/196/136 139/197/135 142/200/140 138/201/139
f 137/205/138 141/206/137 140/198/134 131/195/133
f 145/207/141 133/210/142 134/209/143 146/208/144
f 144/211/145 135/212/146 133/210/142 145/207/141
f 135/213/146 144/216/145 143/215/147 136/214/148
f 146/208/144 134/209/143 136/214/148 143/215/147
f 144/216/145 141/199/137 142/200/140 143/215/147
f 141/206/137 144/211/145 145/207/141 140/198/134
f 140/198/134 145/207/141 146/208/144 139/197/135
f 139/197/135 146/208/144 143/215/147 142/200/140
s 2
f 113/159/115 50/158/50 147/217/58
f 51/51/52 147/218/58 50/50/50
f 148/219/51 113/159/115 110/153/112 45/154/46
f 51/51/52 148/220/51 45/46/46 46/45/45
