# This file uses centimeters as units for non-parametric coordinates.

v -3.256410 -2.309266 2.639239
v -2.639239 -2.926437 2.639239
v -2.639239 -2.309266 3.256411
v 2.639239 -2.926437 2.639239
v 3.256411 -2.309266 2.639239
v 2.639239 -2.309266 3.256411
v -2.639239 3.245894 2.639239
v -3.256410 2.628722 2.639239
v -2.639239 2.628722 3.256411
v 3.256411 2.628722 2.639239
v 2.639239 3.245894 2.639239
v 2.639239 2.628722 3.256411
v -2.639239 2.628722 -3.256411
v -3.256411 2.628722 -2.639239
v -2.639239 3.245894 -2.639239
v 3.256411 2.628722 -2.639239
v 2.639239 2.628722 -3.256410
v 2.639239 3.245894 -2.639239
v -2.639239 -2.926437 -2.639239
v -3.256411 -2.309266 -2.639239
v -2.639239 -2.309266 -3.256411
v 3.256411 -2.309266 -2.639239
v 2.639239 -2.926437 -2.639239
v 2.639239 -2.309266 -3.256410
vt 0.118696 0.124132
vt 0.884952 0.124132
vt 0.884952 0.873285
vt 0.118696 0.873285
vt 0.884952 0.873285
vt 0.118696 0.873285
vt 0.884952 0.124132
vt 0.884952 0.124132
vt 0.884952 0.873285
vt 0.118696 0.873285
vt 0.118696 0.873285
vt 0.884952 0.873285
vt 0.884952 0.025988
vt 0.118696 0.124132
vt 0.118696 0.025988
vt 0.029104 0.124132
vt 0.029104 0.873285
vt 0.118696 0.124132
vt 0.118696 0.025988
vt 0.884952 0.025988
vt 0.884952 0.124132
vt 0.118696 0.971429
vt 0.884952 0.971429
vt 0.118696 0.971429
vt 0.884952 0.873285
vt 0.884952 0.971429
vt 0.118696 0.124132
vt 0.118696 0.025988
vt 0.974545 0.873285
vt 0.974545 0.873285
vt 0.884952 0.124132
vt 0.974545 0.124132
vt 0.118696 0.873285
vt 0.029104 0.873285
vt 0.029104 0.124132
vt 0.884952 0.025988
vt 0.118696 0.124132
vt 0.118696 0.025988
vt 0.118696 0.124132
vt 0.884952 0.025988
vt 0.974545 0.124132
vt 0.118696 0.873285
vt 0.974545 0.873285
vt 0.884952 0.873285
vt 0.884952 0.025988
vt 0.974545 0.124132
vt 0.884952 0.124132
vt 0.118696 0.025988
vn -0.097163 -0.990514 -0.097163
vn 0.097163 -0.990514 -0.097163
vn 0.097163 -0.990514 0.097163
vn -0.097163 -0.990514 0.097163
vn 0.096706 -0.103107 0.989958
vn 0.096706 0.103107 0.989958
vn -0.096706 0.103107 0.989958
vn -0.096706 -0.103107 0.989958
vn -0.989958 0.103107 0.096706
vn -0.989958 0.103107 -0.096706
vn -0.989958 -0.103107 -0.096706
vn -0.989958 -0.103107 0.096706
vn 0.989958 -0.103107 -0.096706
vn 0.989958 0.103107 -0.096706
vn 0.989958 0.103107 0.096706
vn 0.989958 -0.103107 0.096706
vn 0.097163 0.990514 0.097163
vn 0.097163 0.990514 -0.097163
vn -0.097163 0.990514 -0.097163
vn -0.097163 0.990514 0.097163
vn 0.096706 0.103107 -0.989958
vn 0.096706 -0.103107 -0.989958
vn -0.096706 -0.103107 -0.989958
vn -0.096706 0.103107 -0.989958
s 1
f 19/1/1 23/2/2 4/3/3 2/4/4
f 6/21/5 12/25/6 9/42/7 3/39/8
f 8/5/9 14/6/10 20/14/11 1/7/12
f 22/8/13 16/9/14 10/10/15 5/18/16
f 11/27/17 18/31/18 15/44/19 7/11/20
f 17/33/21 24/37/22 21/47/23 13/12/24
f 2/13/4 1/7/12 20/14/11 19/15/1
f 3/39/8 2/38/4 4/40/3 6/21/5
f 1/16/12 3/39/8 9/42/7 8/17/9
f 5/18/16 4/19/3 23/20/2 22/8/13
f 6/21/5 5/41/16 10/43/15 12/25/6
f 8/22/9 7/11/20 15/44/19 14/23/10
f 7/24/20 9/42/7 12/25/6 11/26/17
f 11/27/17 10/28/15 16/45/14 18/31/18
f 14/29/10 13/12/24 21/47/23 20/46/11
f 13/30/24 15/44/19 18/31/18 17/32/21
f 17/33/21 16/34/14 22/35/13 24/37/22
f 19/36/1 21/47/23 24/37/22 23/48/2
f 1/16/12 2/38/4 3/39/8
f 4/40/3 5/41/16 6/21/5
f 7/24/20 8/17/9 9/42/7
f 10/43/15 11/26/17 12/25/6
f 13/30/24 14/23/10 15/44/19
f 16/45/14 17/32/21 18/31/18
f 19/36/1 20/46/11 21/47/23
f 22/35/13 23/48/2 24/37/22
