# This file uses centimeters as units for non-parametric coordinates.

v 2.287566 -10.682951 -2.287566
v 0.000000 -10.682951 -3.235106
v 0.000000 -10.682951 3.235106
v 2.287566 -10.682951 2.287566
v 3.235107 -10.682951 0.000000
v 2.287566 6.462073 -2.287566
v 0.000000 6.462073 -3.235106
v 0.000000 6.462073 3.235106
v 2.287566 6.462073 2.287566
v 3.235107 6.462073 0.000000
v 2.287566 3.959037 2.287566
v 0.000000 3.959037 3.235106
v 0.000000 3.959037 -3.235106
v 2.287566 3.959037 -2.287566
v 3.235107 3.959037 0.000000
v 2.666849 4.214599 2.666849
v 0.000000 4.214599 3.771493
v 2.666849 6.206511 2.666849
v 0.000000 6.206511 3.771493
v 0.000000 4.214599 -3.771493
v 0.000000 6.206511 -3.771493
v 2.666849 4.214599 -2.666849
v 2.666849 6.206511 -2.666849
v 3.771493 4.214599 -0.000000
v 3.771493 6.206511 -0.000000
v -2.287566 -10.682951 -2.287566
v -2.287566 -10.682951 2.287566
v -3.235107 -10.682951 0.000000
v -2.287566 6.462073 -2.287566
v -2.287566 6.462073 2.287566
v -3.235107 6.462073 0.000000
v -2.287566 3.959037 2.287566
v -2.287566 3.959037 -2.287566
v -3.235107 3.959037 0.000000
v -2.666849 4.214599 2.666849
v -2.666849 6.206511 2.666849
v -2.666849 4.214599 -2.666849
v -2.666849 6.206511 -2.666849
v -3.771493 4.214599 -0.000000
v -3.771493 6.206511 -0.000000
v 0.000000 2.512263 0.000000
vt 0.734261 0.016349
vt 0.984702 0.013953
vt 0.984702 0.761230
vt 0.734261 0.761230
vt 0.020763 0.015495
vt 0.268697 0.017280
vt 0.268697 0.761230
vt 0.020763 0.761230
vt 0.502119 0.018905
vt 0.502119 0.761230
vt 0.020763 0.812559
vt 0.268697 0.812559
vt 0.268697 0.939476
vt 0.020763 0.939476
vt 0.734261 0.812559
vt 0.984702 0.812559
vt 0.984702 0.939476
vt 0.734261 0.939476
vt 0.502119 0.812559
vt 0.502119 0.939476
vt 0.268697 0.990375
vt 0.020763 0.990375
vt 0.984702 0.990375
vt 0.734261 0.990375
vt 0.502119 0.990375
vt 0.734261 0.016349
vt 0.984702 0.013953
vt 0.984702 0.761230
vt 0.734261 0.761230
vt 0.020763 0.015495
vt 0.268697 0.017280
vt 0.268697 0.761230
vt 0.020763 0.761230
vt 0.502119 0.018905
vt 0.502119 0.761230
vt 0.020763 0.812559
vt 0.268697 0.812559
vt 0.268697 0.939476
vt 0.020763 0.939476
vt 0.734261 0.812559
vt 0.984702 0.812559
vt 0.984702 0.939476
vt 0.734261 0.939476
vt 0.502119 0.812559
vt 0.502119 0.939476
vt 0.268697 0.990375
vt 0.020763 0.990375
vt 0.984702 0.990375
vt 0.734261 0.990375
vt 0.502119 0.990375
vt 0.008997 0.966344
vt 0.007574 0.968034
vt 0.006246 0.965471
vt 0.004917 0.962908
vt 0.007118 0.962720
vt 0.008808 0.964143
vt 0.005373 0.968222
vt 0.003494 0.964598
vt 0.003683 0.966799
vn 0.707107 0.000000 -0.707107
vn 0.000000 0.000000 -1.000000
vn 0.000000 0.000000 -1.000000
vn 0.707107 0.000000 -0.707107
vn 0.000000 0.000000 1.000000
vn 0.707107 0.000000 0.707107
vn 0.707107 0.000000 0.707107
vn 0.000000 0.000000 1.000000
vn 1.000000 0.000000 0.000000
vn 1.000000 0.000000 0.000000
vn 0.000000 0.000000 1.000000
vn 0.707107 0.000000 0.707107
vn 0.707107 0.000000 0.707107
vn 0.000000 0.000000 1.000000
vn 0.707107 0.000000 -0.707107
vn 0.000000 0.000000 -1.000000
vn 0.000000 0.000000 -1.000000
vn 0.707107 0.000000 -0.707107
vn 1.000000 0.000000 -0.000000
vn 1.000000 0.000000 -0.000000
vn 0.000000 -0.902770 0.430125
vn 0.304144 -0.902769 0.304144
vn 0.304144 -0.902769 0.304144
vn 0.000000 -0.902770 0.430125
vn 0.304144 0.902769 0.304144
vn 0.000000 0.902769 0.430125
vn 0.000000 0.902769 0.430125
vn 0.304144 0.902769 0.304144
vn 0.304144 -0.902769 -0.304144
vn 0.000000 -0.902770 -0.430125
vn 0.000000 -0.902769 -0.430125
vn 0.304144 -0.902769 -0.304144
vn 0.000000 0.902770 -0.430125
vn 0.304144 0.902769 -0.304144
vn 0.304144 0.902769 -0.304144
vn 0.000000 0.902769 -0.430125
vn 0.430125 -0.902769 0.000000
vn 0.430125 -0.902769 0.000000
vn 0.430125 0.902769 -0.000000
vn 0.430125 0.902769 -0.000000
vn -0.707107 0.000000 -0.707107
vn -0.707107 0.000000 -0.707107
vn -0.707107 0.000000 0.707107
vn -0.707107 0.000000 0.707107
vn -1.000000 0.000000 0.000000
vn -1.000000 0.000000 0.000000
vn -0.707107 0.000000 0.707107
vn -0.707107 0.000000 0.707107
vn -0.707107 0.000000 -0.707107
vn -0.707107 0.000000 -0.707107
vn -1.000000 0.000000 -0.000000
vn -1.000000 0.000000 -0.000000
vn -0.304144 -0.902769 0.304144
vn -0.304144 -0.902769 0.304144
vn -0.304144 0.902769 0.304144
vn -0.304144 0.902769 0.304144
vn -0.304144 -0.902769 -0.304144
vn -0.304144 -0.902769 -0.304144
vn -0.304144 0.902769 -0.304144
vn -0.304144 0.902769 -0.304144
vn -0.430125 -0.902769 0.000000
vn -0.430125 -0.902769 -0.000000
vn -0.430125 0.902769 -0.000000
vn -0.430125 0.902769 -0.000000
vn -0.547037 0.633642 0.547037
vn 0.000000 0.633642 0.773627
vn 0.000000 1.000000 0.000000
vn 0.000000 0.633642 -0.773627
vn -0.547037 0.633642 -0.547037
vn -0.773627 0.633642 0.000000
vn 0.547037 0.633642 0.547037
vn 0.547037 0.633642 -0.547037
vn 0.773627 0.633642 0.000000
s 1
f 1/1/1 2/2/2 13/3/3 14/4/4
f 3/5/5 4/6/6 11/7/7 12/8/8
f 4/6/6 5/9/9 15/10/10 11/7/7
f 5/9/9 1/1/1 14/4/4 15/10/10
s 3
f 17/11/11 16/12/12 18/13/13 19/14/14
f 22/15/15 20/16/16 21/17/17 23/18/18
f 24/19/19 22/15/15 23/18/18 25/20/20
f 16/12/12 24/19/19 25/20/20 18/13/13
s 5
f 12/8/21 11/7/22 16/12/23 17/11/24
s 6
f 9/21/25 8/22/26 19/14/27 18/13/28
s 5
f 14/4/29 13/3/30 20/16/31 22/15/32
s 6
f 7/23/33 6/24/34 23/18/35 21/17/36
s 5
f 15/10/37 14/4/29 22/15/32 24/19/38
s 6
f 6/24/34 10/25/39 25/20/40 23/18/35
s 5
f 11/7/22 15/10/37 24/19/38 16/12/23
s 6
f 10/25/39 9/21/25 18/13/28 25/20/40
s 1
f 26/26/41 33/29/42 13/28/3 2/27/2
f 3/30/5 12/33/8 32/32/43 27/31/44
f 27/31/44 32/32/43 34/35/45 28/34/46
f 28/34/46 34/35/45 33/29/42 26/26/41
s 3
f 17/36/11 19/39/14 36/38/47 35/37/48
f 37/40/49 38/43/50 21/42/17 20/41/16
f 39/44/51 40/45/52 38/43/50 37/40/49
f 35/37/48 36/38/47 40/45/52 39/44/51
s 5
f 12/33/21 17/36/24 35/37/53 32/32/54
s 6
f 30/46/55 36/38/56 19/39/27 8/47/26
s 5
f 33/29/57 37/40/58 20/41/31 13/28/30
s 6
f 7/48/33 21/42/36 38/43/59 29/49/60
s 5
f 34/35/61 39/44/62 37/40/58 33/29/57
s 6
f 29/49/60 38/43/59 40/45/63 31/50/64
s 5
f 32/32/54 35/37/53 39/44/62 34/35/61
s 6
f 31/50/64 40/45/63 36/38/56 30/46/55
s 9
f 6/51/65 7/52/66 41/53/67
f 8/54/68 9/55/69 41/53/67
f 9/55/69 10/56/70 41/53/67
f 10/56/70 6/51/65 41/53/67
f 7/52/66 29/57/71 41/53/67
f 30/58/72 8/54/68 41/53/67
f 31/59/73 30/58/72 41/53/67
f 29/57/71 31/59/73 41/53/67
